<?xml version="1.0" encoding="UTF-8" standalone="no"?>
<!-- Created with Inkscape (http://www.inkscape.org/) -->

<svg
   xmlns:dc="http://purl.org/dc/elements/1.1/"
   xmlns:cc="http://creativecommons.org/ns#"
   xmlns:rdf="http://www.w3.org/1999/02/22-rdf-syntax-ns#"
   xmlns:svg="http://www.w3.org/2000/svg"
   xmlns="http://www.w3.org/2000/svg"
   xmlns:sodipodi="http://sodipodi.sourceforge.net/DTD/sodipodi-0.dtd"
   xmlns:inkscape="http://www.inkscape.org/namespaces/inkscape"
   width="1024"
   height="512"
   viewBox="0 0 270.93333 135.46667"
   version="1.1"
   id="svg8"
   inkscape:version="0.92.2 2405546, 2018-03-11"
   sodipodi:docname="map.svg">
  <defs
     id="defs2" />
  <sodipodi:namedview
     id="base"
     pagecolor="#ffffff"
     bordercolor="#666666"
     borderopacity="1.0"
     inkscape:pageopacity="0.0"
     inkscape:pageshadow="2"
     inkscape:zoom="0.7"
     inkscape:cx="469.48966"
     inkscape:cy="156.58012"
     inkscape:document-units="mm"
     inkscape:current-layer="layer1"
     showgrid="true"
     units="px"
     inkscape:window-width="1860"
     inkscape:window-height="998"
     inkscape:window-x="30"
     inkscape:window-y="52"
     inkscape:window-maximized="0"
     showguides="true">
    <inkscape:grid
       type="xygrid"
       id="grid3361" />
  </sodipodi:namedview>
  <metadata
     id="metadata5">
    <rdf:RDF>
      <cc:Work
         rdf:about="">
        <dc:format>image/svg+xml</dc:format>
        <dc:type
           rdf:resource="http://purl.org/dc/dcmitype/StillImage" />
        <dc:title></dc:title>
      </cc:Work>
    </rdf:RDF>
  </metadata>
  <g
     inkscape:label="Layer 1"
     inkscape:groupmode="layer"
     id="layer1"
     transform="translate(0,-161.53332)">
    <path
       style="fill:none;stroke:#000000;stroke-width:0.26458332px;stroke-linecap:butt;stroke-linejoin:miter;stroke-opacity:1"
       d="m 83.343756,241.43749 5.291667,-18.52083 18.520837,7.9375 -5.29167,18.52083 H 91.281256 Z"
       id="path3363"
       inkscape:connector-curvature="0" />
    <path
       style="fill:none;stroke:#000000;stroke-width:0.26458332px;stroke-linecap:butt;stroke-linejoin:miter;stroke-opacity:1"
       d="m 88.635423,222.91666 -5.291667,-11.90625 5.291667,-13.22917 13.229167,7.9375 h 14.55208 v 13.22917 l -9.26041,11.90625 z"
       id="path3365"
       inkscape:connector-curvature="0" />
    <path
       style="fill:none;stroke:#000000;stroke-width:0.26458332px;stroke-linecap:butt;stroke-linejoin:miter;stroke-opacity:1"
       d="m 116.41667,218.94791 13.22917,14.55208 v 14.55209 l -27.78125,1.32291 5.29167,-18.52083 z"
       id="path3367"
       inkscape:connector-curvature="0" />
    <path
       style="fill:none;stroke:#000000;stroke-width:0.26458332px;stroke-linecap:butt;stroke-linejoin:miter;stroke-opacity:1"
       d="m 101.86459,249.37499 5.29167,7.9375 17.19791,-2.64583 5.29167,-6.61458 z"
       id="path3371"
       inkscape:connector-curvature="0" />
    <path
       style="fill:none;stroke:#000000;stroke-width:0.26458332px;stroke-linecap:butt;stroke-linejoin:miter;stroke-opacity:1"
       d="m 91.281256,249.37499 -3.96875,13.22917 11.90625,6.61458 7.937504,-11.90625 -5.29167,-7.9375 z"
       id="path3373"
       inkscape:connector-curvature="0" />
    <path
       style="fill:none;stroke:#000000;stroke-width:0.26458332px;stroke-linecap:butt;stroke-linejoin:miter;stroke-opacity:1"
       d="m 99.218756,269.21874 15.875004,5.29167 15.875,-11.90625 -6.61459,-7.9375 -17.19791,2.64583 z"
       id="path3375"
       inkscape:connector-curvature="0" />
    <path
       style="fill:none;stroke:#000000;stroke-width:0.26458332px;stroke-linecap:butt;stroke-linejoin:miter;stroke-opacity:1"
       d="m 130.96876,262.60416 14.55208,6.61458 11.90625,-6.61458 -3.96875,-13.22917 -23.8125,-1.32291 -5.29167,6.61458 z"
       id="path3377"
       inkscape:connector-curvature="0" />
    <path
       style="fill:none;stroke:#000000;stroke-width:0.26458332px;stroke-linecap:butt;stroke-linejoin:miter;stroke-opacity:1"
       d="m 129.64584,233.49999 13.22917,-3.96875 15.875,9.26042 -5.29167,10.58333 -23.8125,-1.32291 z"
       id="path3379"
       inkscape:connector-curvature="0" />
    <path
       style="fill:none;stroke:#000000;stroke-width:0.26458332px;stroke-linecap:butt;stroke-linejoin:miter;stroke-opacity:1"
       d="m 158.75001,238.79166 15.875,5.29167 v 13.22916 l -17.19792,5.29167 -3.96875,-13.22917 z"
       id="path3381"
       inkscape:connector-curvature="0" />
    <path
       style="fill:none;stroke:#000000;stroke-width:0.26458332px;stroke-linecap:butt;stroke-linejoin:miter;stroke-opacity:1"
       d="m 174.62501,257.31249 19.84375,9.26042 17.19791,-9.26042 -5.29166,-22.48958 -21.16667,-3.96875 -10.58333,13.22917 z"
       id="path3383"
       inkscape:connector-curvature="0" />
    <path
       style="fill:none;stroke:#000000;stroke-width:0.26458332px;stroke-linecap:butt;stroke-linejoin:miter;stroke-opacity:1"
       d="m 185.20834,230.85416 -3.96875,-14.55208 17.19792,6.61458 15.875,-3.96875 -7.9375,15.875 z"
       id="path3385"
       inkscape:connector-curvature="0" />
    <path
       style="fill:none;stroke:#000000;stroke-width:0.26458332px;stroke-linecap:butt;stroke-linejoin:miter;stroke-opacity:1"
       d="m 206.37501,234.82291 19.84375,5.29167 -14.55209,17.19791 z"
       id="path3387"
       inkscape:connector-curvature="0" />
    <path
       style="fill:none;stroke:#000000;stroke-width:0.26458332px;stroke-linecap:butt;stroke-linejoin:miter;stroke-opacity:1"
       d="m 142.87501,229.53124 19.84375,-10.58333 22.48958,11.90625 -10.58333,13.22917 -15.875,-5.29167 z"
       id="path3389"
       inkscape:connector-curvature="0" />
    <path
       style="fill:none;stroke:#000000;stroke-width:0.26458332px;stroke-linecap:butt;stroke-linejoin:miter;stroke-opacity:1"
       d="m 116.41667,218.94791 19.84376,-7.9375 6.61458,18.52083 -13.22917,3.96875 z"
       id="path3391"
       inkscape:connector-curvature="0" />
    <path
       style="fill:none;stroke:#000000;stroke-width:0.26458332px;stroke-linecap:butt;stroke-linejoin:miter;stroke-opacity:1"
       d="m 116.41667,205.71874 14.55209,-9.26041 5.29167,14.55208 -19.84376,7.9375 z"
       id="path3393"
       inkscape:connector-curvature="0" />
    <path
       style="fill:none;stroke:#000000;stroke-width:0.26458332px;stroke-linecap:butt;stroke-linejoin:miter;stroke-opacity:1"
       d="m 88.635423,197.78124 21.166667,-14.55208 21.16667,13.22917 -14.55209,9.26041 h -14.55208 z"
       id="path3395"
       inkscape:connector-curvature="0" />
    <path
       style="fill:none;stroke:#000000;stroke-width:0.26458332px;stroke-linecap:butt;stroke-linejoin:miter;stroke-opacity:1"
       d="m 226.21876,240.11458 3.96875,-18.52084 -11.90625,-6.61458 -3.96875,3.96875 -7.9375,15.875 z"
       id="path3397"
       inkscape:connector-curvature="0" />
    <path
       style="fill:none;stroke:#000000;stroke-width:0.26458332px;stroke-linecap:butt;stroke-linejoin:miter;stroke-opacity:1"
       d="m 218.28126,214.97916 -2.64584,-17.19792 -18.52083,-2.64583 -23.8125,14.55208 7.9375,6.61459 17.19792,6.61458 15.875,-3.96875 z"
       id="path3399"
       inkscape:connector-curvature="0" />
    <path
       style="fill:none;stroke:#000000;stroke-width:0.26458332px;stroke-linecap:butt;stroke-linejoin:miter;stroke-opacity:1"
       d="m 197.11459,195.13541 -17.19792,-10.58333 -17.19791,9.26041 -2.64583,13.22917 13.22916,2.64583 z"
       id="path3401"
       inkscape:connector-curvature="0" />
    <path
       style="fill:none;stroke:#000000;stroke-width:0.26458332px;stroke-linecap:butt;stroke-linejoin:miter;stroke-opacity:1"
       d="m 160.07293,207.04166 2.64583,11.90625 22.48958,11.90625 -3.96875,-14.55208 -7.9375,-6.61459 z"
       id="path3403"
       inkscape:connector-curvature="0" />
    <path
       style="fill:none;stroke:#000000;stroke-width:0.26458332px;stroke-linecap:butt;stroke-linejoin:miter;stroke-opacity:1"
       d="m 136.26043,211.01041 23.8125,-3.96875 2.64583,11.90625 -19.84375,10.58333 z"
       id="path3405"
       inkscape:connector-curvature="0" />
    <path
       style="fill:none;stroke:#000000;stroke-width:0.26458332px;stroke-linecap:butt;stroke-linejoin:miter;stroke-opacity:1"
       d="m 130.96876,196.45833 31.75,-2.64584 -2.64583,13.22917 -23.8125,3.96875 z"
       id="path3407"
       inkscape:connector-curvature="0" />
    <path
       style="fill:none;stroke:#000000;stroke-width:0.26458332px;stroke-linecap:butt;stroke-linejoin:miter;stroke-opacity:1"
       d="m 109.80209,183.22916 34.39584,3.96875 -13.22917,9.26042 z"
       id="path3409"
       inkscape:connector-curvature="0" />
    <path
       style="fill:none;stroke:#000000;stroke-width:0.26458332px;stroke-linecap:butt;stroke-linejoin:miter;stroke-opacity:1"
       d="m 179.91667,184.55208 -35.71874,2.64583 -13.22917,9.26042 31.75,-2.64584 z"
       id="path3411"
       inkscape:connector-curvature="0" />
  </g>
</svg>
